<?xml version="1.0" standalone="no"?>
<!DOCTYPE svg PUBLIC "-//W3C//DTD SVG 20010904//EN"
 "http://www.w3.org/TR/2001/REC-SVG-20010904/DTD/svg10.dtd">
<svg version="1.0" xmlns="http://www.w3.org/2000/svg"
 width="270.000000pt" height="270.000000pt" viewBox="0 0 270.000000 270.000000"
 preserveAspectRatio="xMidYMid meet">
<metadata>
Created by potrace 1.11, written by Peter Selinger 2001-2013
</metadata>
<g transform="translate(0.000000,270.000000) scale(0.100000,-0.100000)"
fill="currentColor" stroke="none">
<path d="M1125 2631 c-623 -111 -1075 -650 -1075 -1281 0 -717 583 -1300 1300
-1300 717 0 1300 583 1300 1300 0 806 -733 1422 -1525 1281z m373 -207 c281
-57 550 -211 687 -392 149 -199 255 -481 255 -682 0 -283 -189 -670 -408 -835
-199 -149 -481 -255 -682 -255 -201 0 -483 106 -682 255 -219 165 -408 552
-408 835 0 201 106 483 255 682 135 179 401 332 680 392 93 19 208 20 303 0z"/>
<path d="M1570 1902 c-72 -24 -139 -59 -224 -116 -38 -25 -70 -46 -72 -46 -2
0 -4 34 -4 75 l0 75 -200 0 c-148 0 -209 -4 -234 -14 -102 -43 -102 -179 0
-222 19 -8 67 -14 109 -14 l75 0 0 -305 0 -305 -105 0 c-161 0 -210 -29 -210
-125 0 -39 5 -59 20 -75 43 -49 55 -50 519 -50 379 0 441 2 476 16 95 38 95
180 0 218 -33 13 -80 16 -245 16 l-205 0 0 189 0 189 78 62 c153 123 285 200
342 200 9 0 48 -20 86 -45 91 -60 130 -61 185 -6 34 34 39 44 39 85 0 42 -5
52 -46 97 -97 103 -254 144 -384 101z"/>
</g>
</svg>
